<svg width="613" height="229" viewBox="0 0 613 229" fill="none" xmlns="http://www.w3.org/2000/svg">
<path d="M79.9375 -4.37114e-07C84.6515 -2.31056e-07 87.0086 -1.28028e-07 88.473 1.46447C89.9375 2.92893 89.9375 5.28595 89.9375 10L89.9375 46C89.9375 50.714 89.9375 53.0711 88.473 54.5355C87.0086 56 84.6515 56 79.9375 56L48.9375 56C44.2235 56 41.8664 56 40.402 54.5355C38.9375 53.0711 38.9375 50.714 38.9375 46L38.9375 10C38.9375 5.28595 38.9375 2.92893 40.402 1.46446C41.8664 -2.10125e-06 44.2235 -1.99822e-06 48.9375 -1.79217e-06L79.9375 -4.37114e-07Z" fill="#4C68FC"/>
<path d="M177.246 80.1206V144C177.246 148.714 177.246 151.071 175.782 152.536C174.317 154 171.96 154 167.246 154H155.02C150.305 154 147.948 154 146.484 152.536C145.02 151.071 145.02 148.714 145.02 144V35.0937C145.02 30.3797 145.02 28.0227 146.484 26.5582C147.948 25.0938 150.305 25.0938 155.02 25.0938H163.678C165.721 25.0938 166.743 25.0938 167.662 25.4744C168.581 25.855 169.304 26.5775 170.749 28.0227L241.699 98.9731V35.0937C241.699 30.3797 241.699 28.0227 243.164 26.5582C244.628 25.0938 246.985 25.0938 251.699 25.0938H263.926C268.64 25.0938 270.997 25.0938 272.461 26.5582C273.926 28.0227 273.926 30.3797 273.926 35.0938V144C273.926 148.714 273.926 151.071 272.461 152.536C270.997 154 268.64 154 263.926 154H255.268C253.224 154 252.202 154 251.283 153.619C250.364 153.239 249.642 152.516 248.197 151.071L177.246 80.1206Z" fill="#303340"/>
<path d="M312.266 25.0938C316.98 25.0938 319.337 25.0938 320.801 26.5582C322.266 28.0227 322.266 30.3797 322.266 35.0938V144C322.266 148.714 322.266 151.071 320.801 152.536C319.337 154 316.98 154 312.266 154H300.039C295.325 154 292.968 154 291.504 152.536C290.039 151.071 290.039 148.714 290.039 144V35.0937C290.039 30.3797 290.039 28.0227 291.504 26.5582C292.968 25.0938 295.325 25.0938 300.039 25.0938H312.266Z" fill="#303340"/>
<path d="M338.379 35.0937C338.379 30.3797 338.379 28.0227 339.843 26.5582C341.308 25.0938 343.665 25.0938 348.379 25.0938H457.285C461.999 25.0938 464.356 25.0938 465.821 26.5582C467.285 28.0227 467.285 30.3797 467.285 35.0938V144C467.285 148.714 467.285 151.071 465.821 152.536C464.356 154 461.999 154 457.285 154H348.379C343.665 154 341.308 154 339.843 152.536C338.379 151.071 338.379 148.714 338.379 144V35.0937ZM374.605 57.3203C372.72 57.3203 371.777 57.3203 371.191 57.9061C370.605 58.4919 370.605 59.4347 370.605 61.3203V117.773C370.605 119.659 370.605 120.602 371.191 121.188C371.777 121.773 372.72 121.773 374.605 121.773H431.059C432.944 121.773 433.887 121.773 434.473 121.188C435.059 120.602 435.059 119.659 435.059 117.773V61.3203C435.059 59.4347 435.059 58.4919 434.473 57.9061C433.887 57.3203 432.944 57.3203 431.059 57.3203H374.605Z" fill="#303340"/>
<path d="M531.738 57.3203H493.398C488.684 57.3203 486.327 57.3203 484.863 55.8558C483.398 54.3914 483.398 52.0344 483.398 47.3203V35.0938C483.398 30.3797 483.398 28.0227 484.863 26.5582C486.327 25.0938 488.684 25.0938 493.398 25.0938H602.305C607.019 25.0938 609.376 25.0938 610.84 26.5582C612.305 28.0227 612.305 30.3797 612.305 35.0938V47.3203C612.305 52.0344 612.305 54.3914 610.84 55.8558C609.376 57.3203 607.019 57.3203 602.305 57.3203H563.965V144C563.965 148.714 563.965 151.071 562.5 152.536C561.036 154 558.679 154 553.965 154H541.738C537.024 154 534.667 154 533.203 152.536C531.738 151.071 531.738 148.714 531.738 144V57.3203Z" fill="#303340"/>
<path d="M0 35.0937C0 30.3797 0 28.0227 1.46447 26.5582C2.92893 25.0938 5.28595 25.0938 10 25.0938H22.2266C26.9406 25.0938 29.2976 25.0938 30.7621 26.5582C32.2266 28.0227 32.2266 30.3797 32.2266 35.0938V117.773C32.2266 119.659 32.2266 120.602 32.8123 121.188C33.3981 121.773 34.3409 121.773 36.2266 121.773H92.6797C94.5653 121.773 95.5081 121.773 96.0939 121.188C96.6797 120.602 96.6797 119.659 96.6797 117.773V35.0937C96.6797 30.3797 96.6797 28.0227 98.1441 26.5582C99.6086 25.0938 101.966 25.0938 106.68 25.0938H118.906C123.62 25.0938 125.977 25.0938 127.442 26.5582C128.906 28.0227 128.906 30.3797 128.906 35.0938V144C128.906 148.714 128.906 151.071 127.442 152.536C125.977 154 123.62 154 118.906 154H10C5.28595 154 2.92893 154 1.46447 152.536C0 151.071 0 148.714 0 144V35.0937Z" fill="#303340"/>
<path d="M461.616 229C460.973 229 460.452 228.474 460.452 227.826V216.674C460.452 216.026 460.973 215.5 461.616 215.5H499.449C500.092 215.5 500.613 214.974 500.613 214.326V209.924C500.613 209.276 500.092 208.75 499.449 208.75H461.616C460.973 208.75 460.452 208.224 460.452 207.576V176.174C460.452 175.526 460.973 175 461.616 175H512.836C513.479 175 514 175.526 514 176.174V187.326C514 187.974 513.479 188.5 512.836 188.5H475.003C474.36 188.5 473.839 189.026 473.839 189.674V194.076C473.839 194.724 474.36 195.25 475.003 195.25H512.836C513.479 195.25 514 195.776 514 196.424V227.826C514 228.474 513.479 229 512.836 229H461.616Z" fill="#303340"/>
<path d="M413.595 214.326C413.595 214.974 414.116 215.5 414.759 215.5H452.592C453.235 215.5 453.756 216.026 453.756 216.674V227.826C453.756 228.474 453.235 229 452.592 229H401.372C400.729 229 400.208 228.474 400.208 227.826V176.174C400.208 175.526 400.729 175 401.372 175H452.592C453.235 175 453.756 175.526 453.756 176.174V187.326C453.756 187.974 453.235 188.5 452.592 188.5H414.759C414.116 188.5 413.595 189.026 413.595 189.674V194.076C413.595 194.724 414.116 195.25 414.759 195.25H452.592C453.235 195.25 453.756 195.776 453.756 196.424V207.576C453.756 208.224 453.235 208.75 452.592 208.75H414.759C414.116 208.75 413.595 209.276 413.595 209.924V214.326Z" fill="#303340"/>
<path d="M339.967 176.174C339.967 175.526 340.488 175 341.131 175H352.19C352.833 175 353.354 175.526 353.354 176.174V214.326C353.354 214.974 353.875 215.5 354.518 215.5H392.351C392.994 215.5 393.515 216.026 393.515 216.674V227.826C393.515 228.474 392.994 229 392.351 229H341.131C340.488 229 339.967 228.474 339.967 227.826V176.174Z" fill="#303340"/>
<path d="M332.109 175C332.752 175 333.273 175.526 333.273 176.174V187.326C333.273 187.974 332.752 188.5 332.109 188.5H294.276C293.633 188.5 293.112 189.026 293.112 189.674V214.326C293.112 214.974 293.633 215.5 294.276 215.5H332.109C332.752 215.5 333.273 216.026 333.273 216.674V227.826C333.273 228.474 332.752 229 332.109 229H280.889C280.246 229 279.725 228.474 279.725 227.826V176.174C279.725 175.526 280.246 175 280.889 175H332.109Z" fill="#303340"/>
<path d="M234.036 188.5C233.393 188.5 232.872 189.026 232.872 189.674V194.076C232.872 194.724 233.393 195.25 234.036 195.25H258.482C259.125 195.25 259.646 194.724 259.646 194.076V189.674C259.646 189.026 259.125 188.5 258.482 188.5H234.036ZM234.036 208.75C233.393 208.75 232.872 209.276 232.872 209.924V227.826C232.872 228.474 232.35 229 231.708 229H220.649C220.006 229 219.485 228.474 219.485 227.826V176.174C219.485 175.526 220.006 175 220.649 175H271.869C272.512 175 273.033 175.526 273.033 176.174V227.826C273.033 228.474 272.512 229 271.869 229H260.81C260.167 229 259.646 228.474 259.646 227.826V209.924C259.646 209.276 259.125 208.75 258.482 208.75H234.036Z" fill="#303340"/>
<path d="M173.792 188.5C173.149 188.5 172.627 189.026 172.627 189.674V194.076C172.627 194.724 173.149 195.25 173.792 195.25H198.237C198.88 195.25 199.402 194.724 199.402 194.076V189.674C199.402 189.026 198.88 188.5 198.237 188.5H173.792ZM173.792 208.75C173.149 208.75 172.627 209.276 172.627 209.924V227.826C172.627 228.474 172.106 229 171.463 229H160.404C159.762 229 159.24 228.474 159.24 227.826V176.174C159.24 175.526 159.762 175 160.404 175H211.624C212.267 175 212.789 175.526 212.789 176.174V207.576C212.789 208.224 212.267 208.75 211.624 208.75H203.148C202.251 208.75 201.691 209.731 202.141 210.513L211.773 227.236C212.224 228.019 211.664 229 210.766 229H198.317C197.903 229 197.519 228.777 197.311 228.416L186.321 209.334C186.113 208.973 185.729 208.75 185.315 208.75H173.792Z" fill="#303340"/>
<path d="M99 176.174C99 175.526 99.5212 175 100.164 175H151.384C152.027 175 152.548 175.526 152.548 176.174V227.826C152.548 228.474 152.027 229 151.384 229H100.164C99.5212 229 99 228.474 99 227.826V176.174ZM113.551 188.5C112.908 188.5 112.387 189.026 112.387 189.674V214.326C112.387 214.974 112.908 215.5 113.551 215.5H137.997C138.64 215.5 139.161 214.974 139.161 214.326V189.674C139.161 189.026 138.64 188.5 137.997 188.5H113.551Z" fill="#303340"/>
</svg>
